<svg xmlns="http://www.w3.org/2000/svg" version="1.1" xmlns:xlink="http://www.w3.org/1999/xlink" xmlns:svgjs="http://svgjs.dev/svgjs" width="1000" height="170" viewBox="0 0 1000 170"><g transform="matrix(1,0,0,1,-0.37810856363040557,-0.6165664893616452)"><svg xmlns="http://www.w3.org/2000/svg" version="1.1" xmlns:xlink="http://www.w3.org/1999/xlink" xmlns:svgjs="http://svgjs.com/svgjs" viewBox="0 0 276 47" data-background-color="#ffffff" preserveAspectRatio="xMidYMid meet" height="170" width="1000"><defs></defs><g id="tight-bounds" transform="matrix(1,0,0,1,0.1043579635619949,0.17046249999998508)"><svg viewBox="0 0 275.791284072876 46.659075" height="46.659075" width="275.791284072876"><g><svg viewBox="0 0 275.791284072876 46.659075" height="46.659075" width="275.791284072876"><g><svg viewBox="0 0 275.791284072876 46.659075" height="46.659075" width="275.791284072876"><g><svg viewBox="0 0 275.791284072876 46.659075" height="46.659075" width="275.791284072876"><g><svg viewBox="0 0 275.791284072876 46.659075" height="46.659075" width="275.791284072876"><g><svg xmlns="http://www.w3.org/2000/svg" version="1.1" xmlns:xlink="http://www.w3.org/1999/xlink" xmlns:svgjs="http://svgjs.com/svgjs"><g></g><g></g></svg></g><g><svg xmlns="http://www.w3.org/2000/svg" version="1.1" xmlns:xlink="http://www.w3.org/1999/xlink" xmlns:svgjs="http://svgjs.com/svgjs"><g><svg xmlns="http://www.w3.org/2000/svg" version="1.1" xmlns:xlink="http://www.w3.org/1999/xlink" xmlns:svgjs="http://svgjs.com/svgjs"></svg></g><g></g></svg></g><g id="text-0"><svg viewBox="0 0 275.791284072876 46.659075" height="46.659075" width="275.791284072876"><g transform="matrix(1,0,0,1,0,0)"><svg width="102.1" viewBox="4.35 -38.25 102.09 38.45" height="38.45" data-palette-color="#000000"><path d="M7.45 0L7.45 0Q6.4 0 5.75-0.65 5.1-1.3 5.1-2.35L5.1-2.35 5.1-25Q5.1-26.05 5.75-26.7 6.4-27.35 7.45-27.35L7.45-27.35Q8.5-27.35 9.15-26.7 9.8-26.05 9.8-25L9.8-25 9.8-2.35Q9.8-1.3 9.15-0.65 8.5 0 7.45 0ZM7.45-32.05L7.45-32.05Q6.2-32.05 5.28-32.98 4.35-33.9 4.35-35.15L4.35-35.15Q4.35-36.5 5.28-37.38 6.2-38.25 7.45-38.25L7.45-38.25Q8.7-38.25 9.63-37.38 10.55-36.5 10.55-35.15L10.55-35.15Q10.55-33.9 9.65-32.98 8.75-32.05 7.45-32.05ZM45.64 0.2L45.64 0.2Q41.95 0.2 38.99-1.6 36.05-3.4 34.34-6.55 32.64-9.7 32.64-13.65L32.64-13.65Q32.64-17.65 34.47-20.78 36.3-23.9 39.42-25.73 42.55-27.55 46.45-27.55L46.45-27.55Q50.39-27.55 53.5-25.73 56.59-23.9 58.42-20.75 60.25-17.6 60.25-13.65L60.25-13.65 58.45-13.25Q58.45-9.45 56.77-6.4 55.09-3.35 52.22-1.58 49.34 0.2 45.64 0.2ZM46.45-3.95L46.45-3.95Q49.14-3.95 51.22-5.23 53.3-6.5 54.52-8.7 55.75-10.9 55.75-13.65L55.75-13.65Q55.75-16.45 54.52-18.65 53.3-20.85 51.22-22.13 49.14-23.4 46.45-23.4L46.45-23.4Q43.84-23.4 41.72-22.13 39.59-20.85 38.37-18.65 37.14-16.45 37.14-13.65L37.14-13.65Q37.14-10.9 38.37-8.7 39.59-6.5 41.72-5.23 43.84-3.95 46.45-3.95ZM57.89 0.05L57.89 0.05Q56.89 0.05 56.22-0.63 55.55-1.3 55.55-2.3L55.55-2.3 55.55-10.25 56.5-15.1 60.25-13.65 60.25-2.3Q60.25-1.3 59.59-0.63 58.95 0.05 57.89 0.05ZM104.09 0.05L104.09 0.05Q103.09 0.05 102.42-0.63 101.74-1.3 101.74-2.3L101.74-2.3 101.74-16.65Q101.74-19.9 100.09-21.63 98.44-23.35 95.79-23.35L95.79-23.35Q93.04-23.35 91.27-21.45 89.49-19.55 89.49-16.55L89.49-16.55 85.59-16.55Q85.59-19.8 86.99-22.3 88.39-24.8 90.89-26.2 93.39-27.6 96.59-27.6L96.59-27.6Q99.49-27.6 101.72-26.3 103.94-25 105.19-22.55 106.44-20.1 106.44-16.65L106.44-16.65 106.44-2.3Q106.44-1.3 105.79-0.63 105.14 0.05 104.09 0.05ZM70.19 0.05L70.19 0.05Q69.14 0.05 68.49-0.63 67.84-1.3 67.84-2.3L67.84-2.3 67.84-24.95Q67.84-26 68.49-26.65 69.14-27.3 70.19-27.3L70.19-27.3Q71.24-27.3 71.89-26.65 72.54-26 72.54-24.95L72.54-24.95 72.54-2.3Q72.54-1.3 71.89-0.63 71.24 0.05 70.19 0.05ZM87.19 0.05L87.19 0.05Q86.14 0.05 85.49-0.63 84.84-1.3 84.84-2.3L84.84-2.3 84.84-16.65Q84.84-19.9 83.19-21.63 81.54-23.35 78.89-23.35L78.89-23.35Q76.14-23.35 74.34-21.48 72.54-19.6 72.54-16.65L72.54-16.65 69.49-16.65Q69.54-19.85 70.84-22.33 72.14-24.8 74.44-26.2 76.74-27.6 79.69-27.6L79.69-27.6Q82.59-27.6 84.82-26.3 87.04-25 88.27-22.55 89.49-20.1 89.49-16.65L89.49-16.65 89.49-2.3Q89.49-1.3 88.87-0.63 88.24 0.05 87.19 0.05Z" opacity="1" transform="matrix(1,0,0,1,0,0)" fill="#000000" class="undefined-text-0"></path></svg></g><g><svg xmlns="http://www.w3.org/2000/svg" xmlns:xlink="http://www.w3.org/1999/xlink" version="1.1" x="116.7879" y="0" viewBox="5.332999999999998 5 90 90" enable-background="new 0 0 100 100" xml:space="preserve" height="46.659075" width="46.659075" class="icon-symbol-0" fill="#d72828" data-fill-palette-color="accent" id="symbol-0"><path d="M50.333 5c-24.852 0-45 20.148-45 45 0 24.854 20.148 45 45 45s45-20.146 45-45C95.333 25.148 75.185 5 50.333 5M52.133 55.4h-25.2v-3.6h21.601V19.4h3.6V55.4z" fill="#d72828" data-fill-palette-color="accent"></path></svg></g><g transform="matrix(1,0,0,1,178.13487500000002,9.429537499999999)"><svg width="97.656409072876" viewBox="4.5 -27.6 97.65510199512802 27.8" height="27.800000000000004" data-palette-color="#000000"><path d="M27.7 0.05L27.7 0.05Q26.7 0.05 26.03-0.63 25.35-1.3 25.35-2.3L25.35-2.3 25.35-14.85Q25.35-17.75 24.28-19.63 23.2-21.5 21.33-22.43 19.45-23.35 17.1-23.35L17.1-23.35Q14.85-23.35 13.08-22.45 11.3-21.55 10.25-20.05 9.2-18.55 9.2-16.65L9.2-16.65 6.15-16.65Q6.2-19.8 7.75-22.28 9.3-24.75 11.95-26.18 14.6-27.6 17.9-27.6L17.9-27.6Q21.35-27.6 24.1-26.13 26.85-24.65 28.45-21.8 30.05-18.95 30.05-14.85L30.05-14.85 30.05-2.3Q30.05-1.3 29.38-0.63 28.7 0.05 27.7 0.05ZM6.85 0.05L6.85 0.05Q5.8 0.05 5.15-0.63 4.5-1.3 4.5-2.3L4.5-2.3 4.5-25Q4.5-26.05 5.15-26.7 5.8-27.35 6.85-27.35L6.85-27.35Q7.9-27.35 8.55-26.7 9.2-26.05 9.2-25L9.2-25 9.2-2.3Q9.2-1.3 8.55-0.63 7.9 0.05 6.85 0.05ZM50.9 0.2L50.9 0.2Q46.9 0.2 43.77-1.58 40.65-3.35 38.87-6.48 37.1-9.6 37.1-13.65L37.1-13.65Q37.1-17.75 38.87-20.88 40.65-24 43.77-25.78 46.9-27.55 50.9-27.55L50.9-27.55Q54.9-27.55 58-25.78 61.1-24 62.9-20.88 64.7-17.75 64.7-13.65L64.7-13.65Q64.7-9.6 62.92-6.48 61.15-3.35 58.05-1.58 54.95 0.2 50.9 0.2ZM50.9-3.95L50.9-3.95Q53.6-3.95 55.7-5.2 57.8-6.45 59-8.63 60.2-10.8 60.2-13.65L60.2-13.65Q60.2-16.5 59-18.7 57.8-20.9 55.7-22.15 53.6-23.4 50.9-23.4L50.9-23.4Q48.2-23.4 46.1-22.15 44-20.9 42.8-18.7 41.6-16.5 41.6-13.65L41.6-13.65Q41.6-10.8 42.8-8.63 44-6.45 46.1-5.2 48.2-3.95 50.9-3.95ZM77.05 0L77.05 0Q76.3 0 75.7-0.43 75.1-0.85 74.85-1.5L74.85-1.5 67.3-24.1Q66.95-25.55 67.35-26.45 67.75-27.35 69.05-27.35L69.05-27.35Q69.9-27.35 70.5-26.88 71.1-26.4 71.45-25.35L71.45-25.35 77.95-5.1 76.4-5.1 82.55-25.6Q82.75-26.35 83.32-26.85 83.9-27.35 84.85-27.35L84.85-27.35Q85.75-27.35 86.32-26.88 86.9-26.4 87.1-25.6L87.1-25.6 92.4-6.1 91.6-6.1 97.8-25.35Q98.45-27.35 100.15-27.35L100.15-27.35Q101.45-27.35 101.92-26.43 102.4-25.5 101.9-24.1L101.9-24.1 94.35-1.5Q94.15-0.85 93.55-0.43 92.95 0 92.2 0L92.2 0Q91.45 0 90.8-0.43 90.15-0.85 89.95-1.5L89.95-1.5 84.45-21.2 84.95-21.2 79.25-1.5Q79.05-0.85 78.45-0.43 77.85 0 77.05 0Z" opacity="1" transform="matrix(1,0,0,1,0,0)" fill="#000000" class="undefined-text-1"></path></svg></g></svg></g></svg></g></svg></g></svg></g><g></g></svg></g></svg><rect width="275.791284072876" height="46.659075" fill="transparent" stroke="transparent"></rect></g></svg></g></svg>